<?xml version="1.0" encoding="UTF-8" standalone="no"?>
<!-- Created with Inkscape (http://www.inkscape.org/) -->

<svg
   xmlns:dc="http://purl.org/dc/elements/1.1/"
   xmlns:cc="http://creativecommons.org/ns#"
   xmlns:rdf="http://www.w3.org/1999/02/22-rdf-syntax-ns#"
   xmlns:svg="http://www.w3.org/2000/svg"
   xmlns="http://www.w3.org/2000/svg"
   version="1.1"
   width="538.58264"
   height="544.96063"
   id="svg7252">
  <defs
     id="defs7254">
    <clipPath
       id="clipPath6945">
      <path
         d="m 319.293,758.475 182.689,0 0,-108.878 -182.689,0 0,108.878 z"
         id="path6947" />
    </clipPath>
  </defs>
  <metadata
     id="metadata7257">
    <rdf:RDF>
      <cc:Work
         rdf:about="">
        <dc:format>image/svg+xml</dc:format>
        <dc:type
           rdf:resource="http://purl.org/dc/dcmitype/StillImage" />
        <dc:title></dc:title>
      </cc:Work>
    </rdf:RDF>
  </metadata>
  <g
     transform="translate(-97.491737,-244.82467)"
     id="layer1">
    <g
       transform="matrix(5.2026166,0,0,5.2026166,-1357.5127,-1256.4418)"
       id="g7319">
      <path
         d="m 280.34888,392.64236 98.6475,0 0,-98.65125 -98.6475,0 0,98.65125 z"
         id="path6937"
         style="fill:#244ba6;fill-opacity:1;fill-rule:nonzero;stroke:none" />
      <path
         d="m 348.23513,289.49861 33.995,0 0,28.88125 -26.36875,35.15875 -34.445,0 0,-27.82125 26.81875,-36.21875"
         id="path6939"
         style="fill:#00adef;fill-opacity:1;fill-rule:nonzero;stroke:none" />
      <g
         transform="matrix(1.25,0,0,-1.25,-244.42612,1237.3186)"
         id="g6941">
        <g
           clip-path="url(#clipPath6945)"
           id="g6943">
          <path
             d="m 474.129,758.256 27.196,0 0,-23.105 -21.095,-28.127 -27.556,0 0,22.257 21.455,28.975 z"
             id="path6949"
             style="fill:none;stroke:#00adef;stroke-width:0.44499999;stroke-linecap:butt;stroke-linejoin:miter;stroke-miterlimit:4;stroke-opacity:1;stroke-dasharray:none" />
        </g>
      </g>
      <path
         d="m 331.88638,316.31611 -13.35125,18.14625 m 0.66875,6.125 17.44625,-23.7025 m -17.8975,38.8575 22.39375,-30.43375 m -17.795,31.75625 21.22875,-28.8425 m -10.545,28.54 22.3225,-30.33125 m -17.47625,30.69875 25.39125,-34.505 m -20.52625,35.0375 23.08125,-31.365 m -17.72,31.34625 22.0925,-30.0225"
         id="path6951"
         style="fill:none;stroke:#244ba6;stroke-width:2.15249991;stroke-linecap:butt;stroke-linejoin:miter;stroke-miterlimit:4;stroke-opacity:1;stroke-dasharray:none" />
      <path
         d="m 328.61763,357.15611 22.465,-30.5225"
         id="path6953"
         style="fill:none;stroke:#244ba6;stroke-width:2.18875003;stroke-linecap:butt;stroke-linejoin:miter;stroke-miterlimit:4;stroke-opacity:1;stroke-dasharray:none" />
      <path
         d="m 319.15888,347.89861 21.86375,-29.70875"
         id="path6955"
         style="fill:none;stroke:#244ba6;stroke-width:2.15249991;stroke-linecap:butt;stroke-linejoin:miter;stroke-miterlimit:4;stroke-opacity:1;stroke-dasharray:none" />
      <path
         d="m 348.26888,304.74861 8.1825,0 4.69625,6.37375 4.6875,-6.37375 8.1975,0 -8.79125,11.935 8.9675,12.39125 -7.975,0 -5.08625,-6.82875 -5.0675,6.82875 -8.20125,0 9.1775,-12.39125 -8.7875,-11.935"
         id="path6957"
         style="fill:#ffffff;fill-opacity:1;fill-rule:nonzero;stroke:none" />
      <path
         d="m 339.35513,304.74861 6.04,0 0,8.9675 8.5775,0 0,5.9225 -8.5775,0 0,9.50625 -6.04,0 0,-9.50625 -8.6075,0 0,-5.9225 8.6075,0 0,-8.9675"
         id="path6959"
         style="fill:#ffffff;fill-opacity:1;fill-rule:nonzero;stroke:none" />
      <path
         d="m 285.96138,365.02861 2.05375,0 c 1.52625,0 2.17625,0.9125 2.17625,1.80375 0,0.73625 -0.3425,1.215 -1.075,1.5175 l 0,0.0188 c 1.05625,0.1975 1.69875,0.89375 1.69875,1.84625 0,0.87 -0.65375,1.89 -2.4275,1.89 l -2.42625,0 0,-7.07625 z m 1.01375,3.03 0.67625,0 c 1.00625,0 1.49125,-0.37375 1.49125,-1.13125 0,-0.53375 -0.3,-0.98625 -1.2325,-0.98625 l -0.935,0 0,2.1175 z m 0,3.13125 1.28125,0 c 1.19125,0 1.51375,-0.59125 1.51375,-1.12 0,-0.64375 -0.5,-1.09625 -1.57,-1.09625 l -1.225,0 0,2.21625"
         id="path6961"
         style="fill:#ffffff;fill-opacity:1;fill-rule:nonzero;stroke:none" />
      <path
         d="m 307.17138,372.10486 -1.04125,0 -0.9425,-2.0875 -3.00875,0 -0.89125,2.0875 -1.03625,0 3.03875,-7.1175 0.71375,0 3.1675,7.1175 z m -4.59875,-3 2.20125,0 -1.14125,-2.5625 -1.06,2.5625"
         id="path6963"
         style="fill:#ffffff;fill-opacity:1;fill-rule:nonzero;stroke:none" />
      <path
         d="m 323.58763,372.10486 -0.87125,0 -4.73,-5.45 0,5.45 -0.95,0 0,-7.07625 0.8075,0 4.79375,5.475 0,-5.475 0.95,0 0,7.07625"
         id="path6965"
         style="fill:#ffffff;fill-opacity:1;fill-rule:nonzero;stroke:none" />
      <path
         d="m 338.85513,372.09361 0,0.02 c 1.24,0.5275 1.94625,0.695 2.64125,0.4975 l 0.0337,0.03 -0.9175,0.9025 c -1.36625,-0.10375 -2.49,-0.71625 -3.47,-1.43875 -1.755,-0.335 -2.96875,-1.775 -2.96875,-3.53875 0,-2.14 1.60875,-3.63125 3.9,-3.63125 2.11875,0 3.7225,1.57625 3.7225,3.65125 0,1.71125 -1.2325,3.18375 -2.94125,3.51875 l 0,-0.0112 z m -3.63625,-3.51875 c 0,1.43375 0.94625,2.68625 2.8325,2.68625 1.5775,0 2.6975,-1.225 2.6975,-2.665 0,-1.54625 -1.15,-2.72625 -2.71625,-2.72625 -2.11875,0 -2.81375,1.63875 -2.81375,2.705"
         id="path6967"
         style="fill:#ffffff;fill-opacity:1;fill-rule:nonzero;stroke:none" />
      <path
         d="m 358.18763,369.32236 c 0,1.73375 -1.0375,2.87625 -3.14125,2.87625 -1.495,0 -2.94875,-0.84 -2.94875,-2.7725 l 0,-4.3975 1.0175,0 0,4.18 c 0,0.8 0.105,1.12875 0.425,1.45125 0.405,0.40625 0.9125,0.60125 1.525,0.60125 0.77375,0 1.3375,-0.2475 1.65625,-0.56875 0.365,-0.3625 0.4475,-0.88375 0.4475,-1.54625 l 0,-4.1175 1.01875,0 0,4.29375"
         id="path6969"
         style="fill:#ffffff;fill-opacity:1;fill-rule:nonzero;stroke:none" />
      <path
         d="m 372.49263,365.94111 -2.9975,0 0,2.13375 2.8925,0 0,0.9175 -2.8925,0 0,2.1975 3.0875,0 0,0.915 -4.10625,0 0,-7.07625 4.01625,0 0,0.9125"
         id="path6971"
         style="fill:#ffffff;fill-opacity:1;fill-rule:nonzero;stroke:none" />
      <path
         d="m 289.24013,378.56361 c 1.7475,0 2.52875,1.21625 2.52875,2.25625 0,1.075 -0.75875,2.30625 -2.51375,2.30625 l -1.51375,0 0,3.06375 -1.9,0 0,-7.62625 3.39875,0 z m -1.49875,3.16375 0.8825,0 c 0.87625,0 1.1875,-0.31625 1.1875,-0.8825 0,-0.6525 -0.3675,-0.88375 -1.3975,-0.88375 l -0.6725,0 0,1.76625"
         id="path6973"
         style="fill:#ffffff;fill-opacity:1;fill-rule:nonzero;stroke:none" />
      <path
         d="m 299.04888,386.28986 c -2.795,0 -4.3725,-1.96625 -4.3725,-3.915 0,-1.84375 1.49875,-3.9125 4.3725,-3.9125 2.87375,0 4.3625,2.08 4.3625,3.9125 0,1.96 -1.62,3.915 -4.3625,3.915 z m 0,-6.2375 c -1.45375,0 -2.415,0.92375 -2.415,2.3225 0,1.3975 0.96125,2.3275 2.415,2.3275 1.44625,0 2.405,-0.93 2.405,-2.3275 0,-1.39875 -0.95875,-2.3225 -2.405,-2.3225"
         id="path6975"
         style="fill:#ffffff;fill-opacity:1;fill-rule:nonzero;stroke:none" />
      <path
         d="m 310.85638,378.56361 c 1.74625,0 2.52875,1.21625 2.52875,2.25625 0,1.075 -0.75875,2.30625 -2.5175,2.30625 l -1.51,0 0,3.06375 -1.90125,0 0,-7.62625 3.4,0 z m -1.49875,3.16375 0.8825,0 c 0.875,0 1.19125,-0.31625 1.19125,-0.8825 0,-0.6525 -0.3725,-0.88375 -1.40125,-0.88375 l -0.6725,0 0,1.76625"
         id="path6977"
         style="fill:#ffffff;fill-opacity:1;fill-rule:nonzero;stroke:none" />
      <path
         d="m 324.89513,378.56361 0,4.32625 c 0,2.52875 -1.72375,3.4 -3.8125,3.4 -2.21625,0 -3.81375,-1.03125 -3.81375,-3.38875 l 0,-4.3375 1.8975,0 0,4.385 c 0,1.095 0.8,1.75375 1.89375,1.75375 1.00625,0 1.93,-0.52625 1.93,-1.89 l 0,-4.24875 1.905,0"
         id="path6979"
         style="fill:#ffffff;fill-opacity:1;fill-rule:nonzero;stroke:none" />
      <path
         d="m 335.35013,386.18986 -5.815,0 0,-7.62625 1.9,0 0,6.2275 3.915,0 0,1.39875"
         id="path6981"
         style="fill:#ffffff;fill-opacity:1;fill-rule:nonzero;stroke:none" />
      <path
         d="m 346.98138,386.18986 -2.04375,0 -0.6275,-1.51125 -3.415,0 -0.5675,1.51125 -2.01375,0 3.0775,-7.62625 2.20125,0 3.38875,7.62625 z m -4.46,-5.80625 -1.11875,2.96875 2.34375,0 -1.225,-2.96875"
         id="path6983"
         style="fill:#ffffff;fill-opacity:1;fill-rule:nonzero;stroke:none" />
      <path
         d="m 350.94763,386.18986 1.90088,0 0,-7.62612 -1.90088,0 0,7.62612 z"
         id="path6985"
         style="fill:#ffffff;fill-opacity:1;fill-rule:nonzero;stroke:none" />
      <path
         d="m 361.02013,378.56361 c 1.56625,0 2.49,1.04625 2.49,2.19125 0,0.83875 -0.435,1.465 -1.3075,1.86625 0.785,0.3925 1.01875,1.33375 2.0925,3.56875 l -2.0925,0 c -0.815,-1.63375 -1.115,-3.09875 -2.145,-3.09875 l -0.54875,0 0,3.09875 -1.90375,0 0,-7.62625 3.415,0 z m -1.51125,3.13 1.0075,0 c 0.52625,0 1.03625,-0.22 1.03625,-0.87375 0,-0.56875 -0.36375,-0.85875 -1.085,-0.85875 l -0.95875,0 0,1.7325"
         id="path6987"
         style="fill:#ffffff;fill-opacity:1;fill-rule:nonzero;stroke:none" />
      <path
         d="m 373.66138,386.18986 -5.6275,0 0,-7.62625 5.5475,0 0,1.3975 -3.6475,0 0,1.59875 3.47875,0 0,1.4 -3.47875,0 0,1.83125 3.7275,0 0,1.39875"
         id="path6989"
         style="fill:#ffffff;fill-opacity:1;fill-rule:nonzero;stroke:none" />
    </g>
  </g>
</svg>
