<?xml version="1.0" encoding="utf-8"?>
<!-- Generator: Adobe Illustrator 14.0.0, SVG Export Plug-In . SVG Version: 6.00 Build 43363)  -->
<!DOCTYPE svg PUBLIC "-//W3C//DTD SVG 1.1//EN" "http://www.w3.org/Graphics/SVG/1.1/DTD/svg11.dtd">
<svg version="1.1" id="Calque_1" xmlns="http://www.w3.org/2000/svg" xmlns:xlink="http://www.w3.org/1999/xlink" x="0px" y="0px"
	 width="150.24px" height="150.24px" viewBox="0 0 150.24 150.24" enable-background="new 0 0 150.24 150.24" xml:space="preserve">
<g>
	<path d="M75.373,146.253c-39.175,0-71.047-31.872-71.047-71.045c0-39.18,31.872-71.049,71.047-71.049
		c39.176,0,71.048,31.87,71.048,71.049C146.421,114.381,114.549,146.253,75.373,146.253L75.373,146.253z M75.373,33.016
		c-23.265,0-42.19,18.926-42.19,42.192c0,23.262,18.925,42.188,42.19,42.188c23.262,0,42.189-18.926,42.189-42.188
		C117.562,51.942,98.635,33.016,75.373,33.016L75.373,33.016z"/>
</g>
<g>
	<linearGradient id="SVGID_1_" gradientUnits="userSpaceOnUse" x1="75.3706" y1="74.6636" x2="75.3706" y2="146.2534">
		<stop  offset="0.5399" style="stop-color:#000000"/>
		<stop  offset="1" style="stop-color:#3B4345"/>
	</linearGradient>
	<path fill="url(#SVGID_1_)" d="M75.371,117.395c-20.114,0-36.973-14.151-41.173-33.015C23.154,82,13.074,78.698,4.337,74.664
		c-0.001,0.182-0.014,0.362-0.014,0.545c0,39.171,31.872,71.044,71.047,71.044c39.174,0,71.047-31.873,71.047-71.044
		c0-0.117-0.008-0.231-0.009-0.349c-8.759,4-18.845,7.27-29.887,9.619C112.283,103.293,95.447,117.395,75.371,117.395z"/>
	<linearGradient id="SVGID_2_" gradientUnits="userSpaceOnUse" x1="75.373" y1="4.292" x2="75.373" y2="88.7048">
		<stop  offset="0" style="stop-color:#000000"/>
		<stop  offset="0.6994" style="stop-color:#3B4345"/>
	</linearGradient>
	<path fill="url(#SVGID_2_)" d="M75.371,4.158c-38.993,0-70.739,31.576-71.033,70.505c8.737,4.035,18.817,7.336,29.86,9.716
		c-0.658-2.956-1.017-6.021-1.017-9.171c0-23.267,18.925-42.192,42.19-42.192c23.262,0,42.189,18.926,42.189,42.192
		c0,3.184-0.365,6.284-1.037,9.27c11.042-2.349,21.128-5.618,29.887-9.619C146.22,35.84,114.429,4.158,75.371,4.158z"/>
	<path d="M51.218,65.007c-5.624,0-10.199,4.574-10.199,10.199c0,5.625,4.575,10.199,10.199,10.199
		c5.624,0,10.199-4.574,10.199-10.199C61.417,69.581,56.842,65.007,51.218,65.007z M51.218,80.417c-2.872,0-5.21-2.338-5.21-5.211
		c0-2.873,2.338-5.208,5.21-5.208c2.874,0,5.21,2.336,5.21,5.208C56.428,78.079,54.092,80.417,51.218,80.417z"/>
	<polygon points="88.063,74.828 102.151,85.184 102.151,65.523 97.161,65.523 97.161,75.293 83.075,65.227 83.075,84.891 
		88.063,84.891 	"/>
	<rect x="104.731" y="65.523" width="4.991" height="19.368"/>
	<polygon points="80.823,65.523 75.921,65.523 75.834,76.087 71.589,72.836 67.408,76.087 67.237,65.523 62.333,65.523 
		63.506,85.184 71.592,79.314 79.649,85.184 	"/>
</g>
</svg>
